<svg width="58" height="52" viewBox="0 0 58 52" fill="none" xmlns="http://www.w3.org/2000/svg">
<path d="M9.59373 38.0135C11.7604 38.0135 13.5168 36.2571 13.5168 34.0904C13.5168 31.9238 11.7604 30.1674 9.59373 30.1674C7.42708 30.1674 5.67065 31.9238 5.67065 34.0904C5.67065 36.2571 7.42708 38.0135 9.59373 38.0135Z" stroke="#006F2C" stroke-width="1.5" stroke-miterlimit="10" stroke-linecap="round" stroke-linejoin="round"/>
<path d="M17.4399 49.7828V45.8826C17.4399 44.9541 16.9528 44.1002 16.1538 43.6275C14.882 42.8749 12.6773 41.9366 9.59371 41.9366C6.47029 41.9366 4.27991 42.869 3.02125 43.6203C2.22879 44.0937 1.74756 44.945 1.74756 45.8682V49.7828H17.4399Z" stroke="#006F2C" stroke-width="1.5" stroke-miterlimit="10" stroke-linecap="round" stroke-linejoin="round"/>
<path d="M49.24 38.0136C51.4066 38.0136 53.1631 36.2572 53.1631 34.0906C53.1631 31.9239 51.4066 30.1675 49.24 30.1675C47.0733 30.1675 45.3169 31.9239 45.3169 34.0906C45.3169 36.2572 47.0733 38.0136 49.24 38.0136Z" stroke="#006F2C" stroke-width="1.5" stroke-miterlimit="10" stroke-linecap="round" stroke-linejoin="round"/>
<path d="M57.0861 49.7829V45.8827C57.0861 44.9543 56.599 44.1003 55.8 43.6276C54.5283 42.875 52.3235 41.9368 49.24 41.9368C46.1165 41.9368 43.9261 42.8692 42.6675 43.6204C41.875 44.0938 41.3938 44.9451 41.3938 45.8683V49.7829H57.0861Z" stroke="#006F2C" stroke-width="1.5" stroke-miterlimit="10" stroke-linecap="round" stroke-linejoin="round"/>
<path d="M29.4653 8.84017C31.632 8.84017 33.3884 7.08375 33.3884 4.9171C33.3884 2.75044 31.632 0.994019 29.4653 0.994019C27.2987 0.994019 25.5422 2.75044 25.5422 4.9171C25.5422 7.08375 27.2987 8.84017 29.4653 8.84017Z" stroke="#006F2C" stroke-width="1.5" stroke-miterlimit="10" stroke-linecap="round" stroke-linejoin="round"/>
<path d="M37.3117 20.6095V16.7093C37.3117 15.7808 36.8246 14.9269 36.0256 14.4542C34.7539 13.7016 32.5491 12.7633 29.4655 12.7633C26.3421 12.7633 24.1517 13.6957 22.8931 14.447C22.1006 14.9203 21.6194 15.7717 21.6194 16.6949V20.6095H37.3117Z" stroke="#006F2C" stroke-width="1.5" stroke-miterlimit="10" stroke-linecap="round" stroke-linejoin="round"/>
<path d="M12.658 25.8629L17.2509 21.27" stroke="#006F2C" stroke-width="1.5" stroke-linecap="round"/>
<path d="M47.6132 25.8629L43.0203 21.2699" stroke="#006F2C" stroke-width="1.5" stroke-linecap="round"/>
<path d="M33.3884 48.1562L26.8931 48.1562" stroke="#006F2C" stroke-width="1.5" stroke-linecap="round"/>
</svg>
