<svg width="66" height="39" viewBox="0 0 66 39" fill="none" xmlns="http://www.w3.org/2000/svg">
<path d="M17.1272 18.8295L18.1105 9.18206H28.0238V11.4544H20.1968L19.6121 16.7299C20.5601 16.1718 21.6364 15.8928 22.8413 15.8928C24.6042 15.8928 26.0039 16.4775 27.0404 17.6469C28.0769 18.8074 28.5952 20.3799 28.5952 22.3643C28.5952 24.3576 28.0548 25.93 26.974 27.0817C25.902 28.2245 24.4004 28.7959 22.4692 28.7959C20.7594 28.7959 19.3641 28.322 18.2833 27.374C17.2025 26.4261 16.5868 25.115 16.4362 23.4406H18.7617C18.9123 24.548 19.3065 25.3852 19.9444 25.9522C20.5822 26.5103 21.4238 26.7894 22.4692 26.7894C23.612 26.7894 24.5067 26.3996 25.1535 25.62C25.809 24.8404 26.1368 23.764 26.1368 22.3909C26.1368 21.0974 25.7824 20.0609 25.0737 19.2813C24.3739 18.4929 23.4392 18.0987 22.2698 18.0987C21.1979 18.0987 20.3563 18.3334 19.745 18.803L19.0939 19.3345L17.1272 18.8295ZM43.4119 20.278C43.4119 23.1572 42.9202 25.2966 41.9369 26.6963C40.9535 28.0961 39.4165 28.7959 37.3257 28.7959C35.2616 28.7959 33.7334 28.1138 32.7412 26.7495C31.749 25.3763 31.2352 23.3299 31.1997 20.6102V17.3279C31.1997 14.4842 31.6914 12.3713 32.6748 10.9893C33.6581 9.60729 35.1996 8.91629 37.2992 8.91629C39.381 8.91629 40.9136 9.58515 41.897 10.9229C42.8803 12.2517 43.3853 14.307 43.4119 17.0887V20.278ZM40.9535 16.916C40.9535 14.8341 40.6612 13.3192 40.0765 12.3713C39.4918 11.4145 38.566 10.9361 37.2992 10.9361C36.0412 10.9361 35.1243 11.4101 34.5484 12.358C33.9726 13.3059 33.6758 14.7632 33.6581 16.7299V20.6633C33.6581 22.7541 33.9593 24.3 34.5617 25.301C35.173 26.2932 36.0943 26.7894 37.3257 26.7894C38.5394 26.7894 39.4386 26.3198 40.0233 25.3808C40.6169 24.4417 40.9269 22.9623 40.9535 20.9424V16.916ZM46.3487 12.9028C46.3487 11.7423 46.7163 10.7855 47.4516 10.0325C48.1958 9.27951 49.1481 8.903 50.3086 8.903C51.4869 8.903 52.4392 9.28394 53.1657 10.0458C53.901 10.7988 54.2686 11.7778 54.2686 12.9826V13.9261C54.2686 15.0955 53.8965 16.0522 53.1524 16.7964C52.4171 17.5317 51.478 17.8993 50.3352 17.8993C49.1835 17.8993 48.2312 17.5317 47.4782 16.7964C46.7252 16.0522 46.3487 15.0644 46.3487 13.833V12.9028ZM48.1825 13.9261C48.1825 14.6171 48.3774 15.1885 48.7672 15.6403C49.157 16.0832 49.6796 16.3047 50.3352 16.3047C50.9642 16.3047 51.4692 16.0877 51.8501 15.6536C52.2399 15.2195 52.4348 14.6259 52.4348 13.8729V12.9028C52.4348 12.2118 52.2443 11.6404 51.8634 11.1886C51.4825 10.7368 50.9642 10.5109 50.3086 10.5109C49.6531 10.5109 49.1348 10.7368 48.7539 11.1886C48.3729 11.6404 48.1825 12.2296 48.1825 12.956V13.9261ZM55.7702 23.7861C55.7702 22.6256 56.1379 21.6733 56.8732 20.9291C57.6173 20.1761 58.5697 19.7996 59.7302 19.7996C60.8907 19.7996 61.8431 20.1717 62.5872 20.9158C63.3314 21.66 63.7035 22.6478 63.7035 23.8792V24.8227C63.7035 25.9832 63.3314 26.94 62.5872 27.693C61.8519 28.4371 60.9084 28.8092 59.7568 28.8092C58.6051 28.8092 57.6528 28.4416 56.8997 27.7063C56.1467 26.9621 55.7702 25.9743 55.7702 24.7429V23.7861ZM57.604 24.8227C57.604 25.5225 57.7989 26.0984 58.1887 26.5502C58.5785 26.9931 59.1012 27.2146 59.7568 27.2146C60.3946 27.2146 60.904 26.9975 61.285 26.5634C61.6659 26.1205 61.8564 25.5225 61.8564 24.7695V23.7861C61.8564 23.0863 61.6615 22.5149 61.2717 22.0719C60.8907 21.629 60.3769 21.4075 59.7302 21.4075C59.1012 21.4075 58.5874 21.629 58.1887 22.0719C57.7989 22.506 57.604 23.0951 57.604 23.8393V24.8227ZM50.8933 27.0684L49.498 26.1914L58.9462 11.069L60.3415 11.9461L50.8933 27.0684Z" fill="#006F2C"/>
<path d="M5.64868 28.014V9.33008" stroke="#006F2C" stroke-width="1.5" stroke-linecap="round" stroke-linejoin="round"/>
<path d="M9.64868 24.0142L5.64868 28.0142L1.64868 24.0142" stroke="#006F2C" stroke-width="1.5" stroke-linecap="round" stroke-linejoin="round"/>
</svg>
