<svg width="15" height="10" viewBox="0 0 15 10" fill="none" xmlns="http://www.w3.org/2000/svg">
<path d="M10.9612 9.87274C11.5586 9.87274 12.043 9.38842 12.043 8.79098C12.043 8.19355 11.5586 7.70923 10.9612 7.70923C10.3638 7.70923 9.87946 8.19355 9.87946 8.79098C9.87946 9.38842 10.3638 9.87274 10.9612 9.87274Z" fill="#7A7A7A"/>
<path d="M14.0586 5.55697L12.882 5.16472L12.4723 2.911C12.4535 2.80801 12.3639 2.73315 12.2594 2.73315H8.79777C8.67835 2.73315 8.58142 2.82986 8.58142 2.94951V8.57463C8.58142 8.69428 8.67835 8.79099 8.79777 8.79099H9.44683C9.44683 7.95609 10.1262 7.27653 10.9613 7.27653C11.7964 7.27653 12.4757 7.95609 12.4757 8.79099H13.9902C14.1096 8.79099 14.2066 8.69428 14.2066 8.57463V5.76207C14.2066 5.66882 14.1471 5.58639 14.0586 5.55697Z" fill="#7A7A7A"/>
<path d="M7.71605 0.353271H0.79281C0.553742 0.353271 0.360107 0.546906 0.360107 0.785974V8.57461C0.360107 8.69404 0.457033 8.79096 0.576459 8.79096H1.67314C1.66427 8.72 1.65821 8.64796 1.65821 8.57461C1.65821 7.62029 2.4347 6.8438 3.38902 6.8438C4.34335 6.8438 5.11983 7.62029 5.11983 8.57461C5.11983 8.64796 5.11377 8.72 5.1049 8.79096H7.9324C8.05182 8.79096 8.14875 8.69404 8.14875 8.57461V0.785974C8.14875 0.546906 7.95511 0.353271 7.71605 0.353271Z" fill="#7A7A7A"/>
<path d="M3.38881 9.87282C4.10573 9.87282 4.68691 9.29164 4.68691 8.57472C4.68691 7.85779 4.10573 7.27661 3.38881 7.27661C2.67188 7.27661 2.0907 7.85779 2.0907 8.57472C2.0907 9.29164 2.67188 9.87282 3.38881 9.87282Z" fill="#7A7A7A"/>
</svg>
