<svg width="17" height="13" viewBox="0 0 17 13" fill="none" xmlns="http://www.w3.org/2000/svg">
<path d="M14.7205 12.4399C15.0601 12.4399 15.3543 12.3278 15.6044 12.1064L11.325 7.82684C11.2223 7.90036 11.1228 7.97185 11.0288 8.03983C10.7085 8.27578 10.4486 8.4599 10.249 8.59184C10.0495 8.72407 9.78394 8.85886 9.4525 8.99647C9.12084 9.13425 8.81186 9.20291 8.52523 9.20291H8.51684H8.50845C8.22179 9.20291 7.91281 9.13427 7.58118 8.99647C7.24955 8.85886 6.98404 8.72407 6.78467 8.59184C6.58511 8.4599 6.32533 8.27581 6.00491 8.03983C5.91562 7.97437 5.8166 7.90255 5.70954 7.82568L1.42932 12.1064C1.6794 12.3278 1.97379 12.4399 2.31329 12.4399H14.7205Z" fill="#7A7A7A"/>
<path d="M1.81614 5.13185C1.49591 4.91836 1.21194 4.67385 0.964722 4.39844V10.9094L4.73656 7.1376C3.98198 6.61079 3.00974 5.94298 1.81614 5.13185Z" fill="#7A7A7A"/>
<path d="M15.2265 5.13185C14.0784 5.90892 13.1027 6.57788 12.2991 7.1391L16.0694 10.9096V4.39844C15.8277 4.66831 15.5467 4.91265 15.2265 5.13185Z" fill="#7A7A7A"/>
<path d="M14.7207 0.571777H2.31351C1.88066 0.571777 1.54788 0.717944 1.31475 1.00998C1.08143 1.30214 0.964966 1.66753 0.964966 2.10573C0.964966 2.45969 1.11952 2.8432 1.4285 3.25639C1.73748 3.66941 2.06626 3.99383 2.41468 4.22981C2.60568 4.36476 3.18168 4.7652 4.14268 5.43098C4.66145 5.79048 5.11259 6.10382 5.50027 6.37421C5.83073 6.60446 6.11571 6.80385 6.351 6.96933C6.37801 6.98828 6.42049 7.01866 6.47688 7.05897C6.53762 7.1026 6.61449 7.15797 6.70932 7.22645C6.89193 7.35852 7.04363 7.46528 7.16446 7.54683C7.28512 7.62842 7.43132 7.71955 7.60282 7.82074C7.77419 7.92179 7.93583 7.99779 8.08753 8.04833C8.23927 8.09884 8.37973 8.12418 8.50895 8.12418H8.51734H8.52573C8.65492 8.12418 8.79541 8.09884 8.94717 8.04833C9.09885 7.99779 9.26035 7.92196 9.43186 7.82074C9.6032 7.71955 9.7492 7.62823 9.87024 7.54683C9.99107 7.46528 10.1428 7.35855 10.3254 7.22645C10.4201 7.15797 10.4969 7.10258 10.5577 7.05911C10.6141 7.01863 10.6565 6.98844 10.6837 6.96933C10.867 6.84178 11.1526 6.64321 11.5367 6.37654C12.2355 5.89101 13.2646 5.17638 14.6285 4.22981C15.0386 3.94332 15.3813 3.59759 15.6567 3.19312C15.9316 2.78866 16.0695 2.36439 16.0695 1.92046C16.0695 1.54956 15.9358 1.23219 15.6691 0.967853C15.4021 0.703848 15.086 0.571777 14.7207 0.571777Z" fill="#7A7A7A"/>
</svg>
