<svg width="13" height="13" viewBox="0 0 13 13" fill="none" xmlns="http://www.w3.org/2000/svg">
<path d="M9.6373 8.08955C9.24972 7.7069 8.76586 7.7069 8.38075 8.08955C8.08698 8.38085 7.7932 8.67216 7.50437 8.9684C7.42537 9.04986 7.35872 9.06714 7.26244 9.01283C7.07235 8.90915 6.86992 8.82521 6.68724 8.71166C5.83554 8.17595 5.1221 7.48719 4.49012 6.71203C4.17659 6.32692 3.89763 5.91465 3.70261 5.45054C3.66311 5.35673 3.67052 5.29501 3.74704 5.21848C4.04082 4.93458 4.32718 4.64328 4.61602 4.35198C5.01841 3.94711 5.01841 3.47313 4.61355 3.0658C4.38396 2.83374 4.15438 2.60662 3.92479 2.37457C3.6878 2.13757 3.45327 1.89811 3.21381 1.66359C2.82623 1.28588 2.34237 1.28588 1.95726 1.66606C1.66101 1.95736 1.37712 2.25607 1.07594 2.54244C0.796978 2.80658 0.656264 3.12998 0.626639 3.50769C0.579735 4.12239 0.730324 4.70253 0.94263 5.26785C1.37712 6.43801 2.03872 7.47732 2.84104 8.43023C3.92479 9.71887 5.21838 10.7384 6.73167 11.4741C7.41303 11.8049 8.11907 12.0592 8.88683 12.1011C9.41512 12.1308 9.8743 11.9975 10.2421 11.5852C10.4939 11.3038 10.7778 11.047 11.0444 10.7779C11.4394 10.378 11.4419 9.89415 11.0494 9.49916C10.5803 9.02765 10.1088 8.5586 9.6373 8.08955Z" fill="#7A7A7A"/>
<path d="M9.16591 6.12203L10.0769 5.9665C9.93367 5.12962 9.53868 4.37174 8.93879 3.76938C8.30434 3.13493 7.50203 2.73501 6.61824 2.61157L6.48987 3.52745C7.17369 3.62373 7.7958 3.93231 8.28706 4.42358C8.75117 4.88769 9.05482 5.47524 9.16591 6.12203Z" fill="#7A7A7A"/>
<path d="M10.5903 2.16233C9.53869 1.11067 8.20807 0.446599 6.73921 0.241699L6.61084 1.15758C7.87974 1.33532 9.03014 1.91052 9.93861 2.81653C10.8002 3.6781 11.3655 4.76678 11.5704 5.96409L12.4813 5.80856C12.2419 4.42117 11.5877 3.16214 10.5903 2.16233Z" fill="#7A7A7A"/>
</svg>
